<svg id="Layer_1" data-name="Layer 1" xmlns="http://www.w3.org/2000/svg" xmlns:xlink="http://www.w3.org/1999/xlink" width="40" height="166.24" viewBox="0 0 40 166.24"><defs><clipPath id="clip-path" transform="translate(0 -3.39)"><rect y="3.39" width="40" height="33.87" style="fill:none"/></clipPath><clipPath id="clip-path-2" transform="translate(0 -3.39)"><rect x="0.3" y="46.59" width="31.37" height="30.87" style="fill:none"/></clipPath><clipPath id="clip-path-3" transform="translate(0 -3.39)"><rect y="133.77" width="31.67" height="35.87" style="fill:none"/></clipPath><clipPath id="clip-path-4" transform="translate(0 -3.39)"><rect y="87.55" width="31.67" height="36.09" style="fill:none"/></clipPath></defs><title>sprite-icons-main-nav-40-2</title><g style="clip-path:url(#clip-path)"><path d="M33.38,22a.65.65,0,0,0-.29-.08.76.76,0,0,0-.55.24L31,23.69a.73.73,0,0,0-.22.53v6.11a3.86,3.86,0,0,1-3.85,3.85h-20A3.7,3.7,0,0,1,4.22,33a3.7,3.7,0,0,1-1.13-2.72v-20A3.7,3.7,0,0,1,4.21,7.59,3.71,3.71,0,0,1,6.93,6.46h20A4.27,4.27,0,0,1,28,6.6a.77.77,0,0,0,.22,0,.76.76,0,0,0,.57-.23L30,5.24a.74.74,0,0,0,.22-.7A.72.72,0,0,0,29.78,4a6.62,6.62,0,0,0-2.84-.6h-20A6.67,6.67,0,0,0,2,5.42a6.67,6.67,0,0,0-2,4.89v20a6.67,6.67,0,0,0,2,4.9,6.67,6.67,0,0,0,4.89,2h20a6.94,6.94,0,0,0,6.93-6.93V22.68a.7.7,0,0,0-.48-.7" transform="translate(0 -3.39)" style="fill:#61b0b0"/><path d="M39.43,8.17,36.78,5.53a1.92,1.92,0,0,0-2.71,0l0,0L18.48,21.09l-6.33-6.33a1.92,1.92,0,0,0-2.71,0l0,0L6.76,17.41a1.92,1.92,0,0,0,0,2.71l0,0L17.1,30.49a1.92,1.92,0,0,0,2.71,0l0,0L39.43,10.92a1.92,1.92,0,0,0,0-2.71l0,0" transform="translate(0 -3.39)" style="fill:#61b0b0"/></g><g style="clip-path:url(#clip-path-2)"><path d="M.44,57.14.3,47.47a.88.88,0,0,1,.88-.89h0l9.71.14a.9.9,0,0,1,.9.9.86.86,0,0,1-.29.62L8.8,50.93l4.49,4.47L9.12,59.56l-4.49-4.5-2.7,2.7a.91.91,0,0,1-1.24,0,.82.82,0,0,1-.25-.61" transform="translate(0 -3.39)" style="fill:#61b0b0"/><path d="M27.32,55.12,30,57.81a.91.91,0,0,0,1.24,0,.83.83,0,0,0,.26-.62l.14-9.67a.88.88,0,0,0-.88-.89h0l-9.71.14a.9.9,0,0,0-.9.9.86.86,0,0,0,.29.62L23.16,51l-4.49,4.44,4.17,4.15Z" transform="translate(0 -3.39)" style="fill:#61b0b0"/><path d="M20.45,75.82a.86.86,0,0,0,0,1.25.94.94,0,0,0,.64.27l9.71.11a.88.88,0,0,0,.9-.87v0l-.14-9.67a.85.85,0,0,0-.84-.86.89.89,0,0,0-.65.25L27.32,69l-4.49-4.44L18.66,68.7l4.49,4.47Z" transform="translate(0 -3.39)" style="fill:#61b0b0"/><path d="M1.19,77.39l9.71-.14a.9.9,0,0,0,.9-.9.86.86,0,0,0-.29-.62l-2.7-2.68,4.49-4.47L9.13,64.43,4.64,68.92l-2.7-2.69a.9.9,0,0,0-1.23,0,.82.82,0,0,0-.27.63L.3,76.5a.89.89,0,0,0,.9.89h0" transform="translate(0 -3.39)" style="fill:#61b0b0"/></g><g style="clip-path:url(#clip-path-3)"><path d="M28.19,156a8.63,8.63,0,0,1-5.2,5.46,34.9,34.9,0,0,1-8.2.73.18.18,0,0,0-.15.07l-2.57,2.87-2.71,3.05a.32.32,0,0,1-.55-.24v-6.25a.21.21,0,0,0-.16-.21h0A8.63,8.63,0,0,1,3.45,156a32.81,32.81,0,0,1,0-12.87,8.63,8.63,0,0,1,5.2-5.46,34.84,34.84,0,0,1,14.32,0,8.63,8.63,0,0,1,5.2,5.46,32.77,32.77,0,0,1,0,12.87m2.75-13.6c-.76-3.38-4.2-7-7.37-7.77h0a37.42,37.42,0,0,0-15.44,0h0C5,135.35,1.5,139,.74,142.37h0a36.19,36.19,0,0,0,0,14.24h0a11.6,11.6,0,0,0,7,7.73v3.77a1.37,1.37,0,0,0,2.39,1.06l3.49-4c.75,0,1.52.07,2.27.07a37.62,37.62,0,0,0,7.72-.8h0c3.17-.75,6.61-4.38,7.37-7.77h0a36.16,36.16,0,0,0,0-14.24Z" transform="translate(0 -3.39)" style="fill:#61b0b0"/><path d="M22.74,154.85a16.39,16.39,0,0,0-1.3-1.11c-.46-.36-.93-.72-1.41-1.06a1.16,1.16,0,0,0-1.49.07c-.45.41-.67,1.19-1.32,1.28a2,2,0,0,1-1.06-.28,7.89,7.89,0,0,1-4.15-5,1.11,1.11,0,0,1,.06-.86,1.49,1.49,0,0,1,.33-.37,4.41,4.41,0,0,1,.43-.37,1.54,1.54,0,0,0,.37-2,18.2,18.2,0,0,0-2-3.09,1,1,0,0,0-1.29-.33A4.84,4.84,0,0,0,8.29,143a2.4,2.4,0,0,0-.6,2.22c.33.86.65,1.72,1,2.57a22.4,22.4,0,0,0,3,5,20.59,20.59,0,0,0,7.72,5.69,9.18,9.18,0,0,0,.91.31c-.32-.1.27-.09,0,0a4.29,4.29,0,0,0,.86-.28,4.7,4.7,0,0,0,1.89-2.28,1.23,1.23,0,0,0-.32-1.42" transform="translate(0 -3.39)" style="fill:#61b0b0"/><path d="M20.35,158.85c.27-.09-.32-.1,0,0" transform="translate(0 -3.39)" style="fill:#61b0b0"/><path d="M15.85,140.62h0" transform="translate(0 -3.39)" style="fill:#61b0b0"/><path d="M15.85,140.62h-.24a.5.5,0,0,0-.47.52v0c.06.38.42.39.69.42.44.05.86.07,1.3.15A7.23,7.23,0,0,1,22.66,148c.08.59.1,1.19.15,1.79,0,.3.15.58.46.58s.45-.29.43-.59c-.05-.72-.09-1.44-.21-2.14a8,8,0,0,0-7.64-7.05" transform="translate(0 -3.39)" style="fill:#61b0b0"/><path d="M15.84,140.62h0" transform="translate(0 -3.39)" style="fill:#61b0b0"/><path d="M20.76,148.83a1.39,1.39,0,0,0,0,.4.43.43,0,0,0,.86-.05,2.11,2.11,0,0,0,0-.29h0v-1a5.51,5.51,0,0,0-5.36-5,.43.43,0,0,0-.45.45.45.45,0,0,0,.37.51h0l.66.09a4.91,4.91,0,0,1,1.45.49,4.53,4.53,0,0,1,1.82,1.87,5.47,5.47,0,0,1,.58,2.57" transform="translate(0 -3.39)" style="fill:#61b0b0"/><path d="M21.66,148.89h0" transform="translate(0 -3.39)" style="fill:#61b0b0"/><path d="M19.24,148.79h0" transform="translate(0 -3.39)" style="fill:#61b0b0"/><path d="M19.62,148.45a1.47,1.47,0,0,0,0-.4,2.75,2.75,0,0,0-2.7-2.87.47.47,0,0,0-.49.4.48.48,0,0,0,.35.56c.23.06.48,0,.71.12a1.59,1.59,0,0,1,.51.27,1.92,1.92,0,0,1,.63,1.09,5.81,5.81,0,0,1,.09.67.49.49,0,0,0,.47.51h.08a.39.39,0,0,0,.32-.34" transform="translate(0 -3.39)" style="fill:#61b0b0"/><path d="M19.3,148.79h0" transform="translate(0 -3.39)" style="fill:#61b0b0"/><path d="M19.28,148.79h0" transform="translate(0 -3.39)" style="fill:#61b0b0"/></g><g style="clip-path:url(#clip-path-4)"><path d="M22.93,105.24h0l-1.6-1.72L22,103h0l1.6,1.72Zm-3-1.84v2.19h0a.47.47,0,0,1-.46.48H16a.47.47,0,0,1-.48-.46s0,0,0,0v-2.07a4.79,4.79,0,0,1,2.12-9h.08a4.78,4.78,0,0,1,4.72,4.78h0A4.79,4.79,0,0,1,20,103.42m-.76,4.78h-.43a.27.27,0,0,1,.13.23.28.28,0,0,1-.27.28h0a.27.27,0,0,1-.25.16h-.11V109H18v-.08h-.43V109h-.29v-.09h-.09a.27.27,0,0,1-.25-.16h0a.28.28,0,0,1-.15-.51H16.3a.27.27,0,0,1-.27-.27h0a.28.28,0,0,1,.27-.28h3a.28.28,0,0,1-.09.55m.27-1.72v.86H16v-.86h3.52Zm-7.21-1.28-.62-.54,1.6-1.72.62.54Zm-3-6.33,2.38-.08v.82l-2.38.08ZM12,93.18l1.72,1.62-.57.59L11.4,93.78Zm5.31-2.11h.86V93.4h-.86Zm6,2.1h0l.58.59-1.72,1.62h0l-.57-.59Zm2.63,6.52-2.42-.08V98.8l2.38.08Zm5.71-.23V97.78a1.81,1.81,0,0,0-.1-.41v-.11l-.06-.2v-.14l-.06-.18-.05-.15-.06-.17-.06-.17-.05-.15-.11-.28v-.07L31,95.47v-.09l-.11-.24v-.08l-.13-.25v-.05A13.56,13.56,0,0,0,23,88.34h0l-.31-.09h-.09l-.22-.07h-.15l-.16,0a16,16,0,0,0-8.12,0c-8.79,2.29-10.3,9.17-10.3,10.3s1,4,.27,6-3.59,5.05-3.32,6,2.67,1.08,2.67,1.08,0,.86-.29,1.08-.14.94.39,1.34a5.15,5.15,0,0,0,1.41.69s-1,.22-.86.92a1.16,1.16,0,0,0,1.23,1.08h0c.75,0,.94-.32,1.07.06s.21.42.21.42a4.92,4.92,0,0,0-.1,3.29c.65,1.4,1.66,1.4,2.83,1.12s3.43-.92,3.43-.92l.63,3.11H26.09l-.68-9.2s7-6.55,6.19-15" transform="translate(0 -3.39)" style="fill:#61b0b0"/><path d="M19.5,106.06" transform="translate(0 -3.39)" style="fill:#61b0b0"/><path d="M19.31,107.67a.29.29,0,0,1,.15.25.27.27,0,0,1-.27.28h-.44a.28.28,0,0,1-.15.51h0a.27.27,0,0,1-.25.16h-.11V109h.06v-.09h.11a.27.27,0,0,0,.25-.16h0a.28.28,0,0,0,.27-.28.27.27,0,0,0-.13-.23h.43a.28.28,0,0,0,.09-.55" transform="translate(0 -3.39)" style="fill:#61b0b0"/></g><polygon points="21.95 99.58 23.53 101.29 22.93 101.83 22.93 101.85 23.55 101.31 21.96 99.58 21.95 99.58" style="fill:#61b0b0"/><g style="clip-path:url(#clip-path-4)"><path d="M22.42,99.21A4.79,4.79,0,0,1,20,103.38v2.2h0v-2.18a4.79,4.79,0,0,0,2.45-4.17h0" transform="translate(0 -3.39)" style="fill:#61b0b0"/></g><polygon points="22.14 92.02 21.56 91.44 23.27 89.82 23.26 89.81 21.55 91.44 22.13 92.03 22.14 92.02" style="fill:#61b0b0"/><polygon points="22.14 92.02 22.14 92.03 23.85 90.41 23.28 89.81 23.27 89.82 23.83 90.41 22.14 92.02" style="fill:#61b0b0"/><polygon points="18.09 87.72 18.09 90.04 17.7 90.04 17.7 90.05 18.11 90.05 18.11 87.72 18.09 87.72" style="fill:#61b0b0"/><g style="clip-path:url(#clip-path-4)"><path d="M19.31,107.67h0" transform="translate(0 -3.39)" style="fill:#61b0b0"/><path d="M22.42,99.21h0a4.78,4.78,0,0,0-4.72-4.79h0a4.79,4.79,0,0,1,4.72,4.77" transform="translate(0 -3.39)" style="fill:#61b0b0"/></g><polygon points="21.95 99.58 21.94 99.58 21.32 100.12 22.92 101.83 22.93 101.83 21.34 100.12 21.95 99.58" style="fill:#61b0b0"/><g style="clip-path:url(#clip-path-4)"><path d="M19.5,106.06a.47.47,0,0,0,.48-.46s0,0,0,0a.48.48,0,0,1-.48.48" transform="translate(0 -3.39)" style="fill:#61b0b0"/></g><rect x="17.71" y="103.1" width="1.78" height="0.01" style="fill:#61b0b0"/><rect x="17.95" y="105.5" width="0.03" height="0.08" style="fill:#61b0b0"/></svg>