<svg id="Layer_1" data-name="Layer 1" xmlns="http://www.w3.org/2000/svg" xmlns:xlink="http://www.w3.org/1999/xlink" width="48" height="199.64" viewBox="0 0 48 199.64"><defs><clipPath id="clip-path" transform="translate(0 -0.36)"><rect y="0.36" width="48" height="40.64" style="fill:none"/></clipPath><clipPath id="clip-path-2" transform="translate(0 -0.36)"><rect x="4" y="52.36" width="39.59" height="40.64" style="fill:none"/></clipPath><clipPath id="clip-path-3" transform="translate(0 -0.36)"><rect x="5" y="158.19" width="36.91" height="41.81" style="fill:none"/></clipPath><clipPath id="clip-path-4" transform="translate(0 -0.36)"><rect x="6" y="104.93" width="36.91" height="42.07" style="fill:none"/></clipPath></defs><title>sprite-icons-main-nav</title><g style="clip-path:url(#clip-path)"><path d="M40.06,22.67a.78.78,0,0,0-.35-.09.91.91,0,0,0-.66.29L37.2,24.72a.87.87,0,0,0-.26.64v7.33a4.63,4.63,0,0,1-4.62,4.62h-24a4.44,4.44,0,0,1-3.26-1.36,4.44,4.44,0,0,1-1.36-3.26v-24A4.44,4.44,0,0,1,5.05,5.41,4.45,4.45,0,0,1,8.31,4.05h24a5.12,5.12,0,0,1,1.3.17.92.92,0,0,0,.26.06A.91.91,0,0,0,34.55,4L36,2.58a.89.89,0,0,0,.26-.84.87.87,0,0,0-.52-.66A7.94,7.94,0,0,0,32.33.36h-24A8,8,0,0,0,2.44,2.8,8,8,0,0,0,0,8.67v24a8,8,0,0,0,2.44,5.88A8,8,0,0,0,8.31,41h24a8.33,8.33,0,0,0,8.31-8.31V23.51a.84.84,0,0,0-.58-.84" transform="translate(0 -0.36)" style="fill:#61b0b0"/><path d="M47.31,6.1,44.13,2.93a2.3,2.3,0,0,0-3.29,0L22.17,21.6,14.58,14a2.3,2.3,0,0,0-3.29,0L8.11,17.19a2.3,2.3,0,0,0,0,3.29L20.52,32.89a2.3,2.3,0,0,0,3.29,0L47.31,9.4a2.3,2.3,0,0,0,0-3.29" transform="translate(0 -0.36)" style="fill:#61b0b0"/></g><g style="clip-path:url(#clip-path-2)"><path d="M4.18,66.26,4,53.53a1.14,1.14,0,0,1,1.12-1.17l12.25.18a1.16,1.16,0,0,1,.77,2l-3.41,3.54,5.67,5.89-5.26,5.47L9.48,63.52,6.07,67.07a1.11,1.11,0,0,1-1.89-.81" transform="translate(0 -0.36)" style="fill:#61b0b0"/><path d="M38.11,63.6l3.41,3.54a1.11,1.11,0,0,0,1.9-.8l.18-12.73a1.14,1.14,0,0,0-1.13-1.17l-12.25.19a1.16,1.16,0,0,0-.77,2l3.4,3.52L27.18,64l5.26,5.47Z" transform="translate(0 -0.36)" style="fill:#61b0b0"/><path d="M29.44,90.85a1.16,1.16,0,0,0,.77,2L42.46,93a1.14,1.14,0,0,0,1.13-1.17L43.41,79.1a1.1,1.1,0,0,0-1.89-.8L38.1,81.85,32.44,76l-5.26,5.47,5.67,5.89Z" transform="translate(0 -0.36)" style="fill:#61b0b0"/><path d="M5.13,92.92l12.25-.18a1.16,1.16,0,0,0,.77-2l-3.41-3.53,5.67-5.89-5.26-5.47L9.48,81.76,6.07,78.22a1.1,1.1,0,0,0-1.89.8L4,91.75a1.15,1.15,0,0,0,1.13,1.17" transform="translate(0 -0.36)" style="fill:#61b0b0"/></g><g style="clip-path:url(#clip-path-3)"><path d="M37.86,184.05c-.59,2.57-3.64,5.77-6.06,6.36a40.68,40.68,0,0,1-9.56.85.21.21,0,0,0-.17.08l-3,3.34-3.16,3.56a.37.37,0,0,1-.64-.28v-7.29a.25.25,0,0,0-.19-.25h0c-2.42-.59-5.47-3.79-6.06-6.36a38.24,38.24,0,0,1,0-15c.59-2.57,3.64-5.77,6.06-6.36a40.61,40.61,0,0,1,16.69,0c2.42.59,5.47,3.79,6.06,6.36a38.2,38.2,0,0,1,0,15m3.21-15.85c-.89-3.94-4.9-8.18-8.59-9.06h0a43.62,43.62,0,0,0-18,0h0c-3.68.88-7.7,5.11-8.59,9.06v0a42.18,42.18,0,0,0,0,16.6v0A13.52,13.52,0,0,0,14,193.82v4.4a1.6,1.6,0,0,0,2.78,1.23l4.07-4.64c.88.05,1.77.08,2.65.08a43.85,43.85,0,0,0,9-.93h0c3.69-.88,7.7-5.11,8.59-9.06v0a42.15,42.15,0,0,0,0-16.6Z" transform="translate(0 -0.36)" style="fill:#61b0b0"/><path d="M31.51,182.76A19.1,19.1,0,0,0,30,181.47c-.54-.42-1.08-.84-1.64-1.23a1.35,1.35,0,0,0-1.74.08c-.53.48-.78,1.39-1.54,1.49a2.29,2.29,0,0,1-1.24-.33A9.2,9.2,0,0,1,19,175.6a1.29,1.29,0,0,1,.07-1,1.74,1.74,0,0,1,.38-.43c.16-.15.32-.3.5-.43a1.79,1.79,0,0,0,.43-2.29A21.21,21.21,0,0,0,18,167.85a1.13,1.13,0,0,0-1.5-.39A5.64,5.64,0,0,0,14.66,169a2.8,2.8,0,0,0-.7,2.59c.38,1,.76,2,1.2,3a26.11,26.11,0,0,0,3.46,5.8,24,24,0,0,0,9,6.63,10.7,10.7,0,0,0,1.06.36c-.37-.12.32-.11,0,0a5,5,0,0,0,1-.33,5.48,5.48,0,0,0,2.2-2.66,1.43,1.43,0,0,0-.37-1.66" transform="translate(0 -0.36)" style="fill:#61b0b0"/><path d="M28.72,187.42c.32-.11-.37-.12,0,0" transform="translate(0 -0.36)" style="fill:#61b0b0"/><path d="M23.48,166.18h0" transform="translate(0 -0.36)" style="fill:#61b0b0"/><path d="M23.48,166.18H23.2a.58.58,0,0,0-.54.67c.07.44.49.46.81.49.51.06,1,.08,1.51.18a8.43,8.43,0,0,1,6.43,7.31c.09.69.12,1.39.17,2.09,0,.35.18.68.54.68s.53-.34.5-.69c-.06-.84-.11-1.68-.24-2.5a9.36,9.36,0,0,0-8.9-8.22" transform="translate(0 -0.36)" style="fill:#61b0b0"/><path d="M23.46,166.18h0c.28,0,4.26.13,0,0" transform="translate(0 -0.36)" style="fill:#61b0b0"/><path d="M29.2,175.74a1.62,1.62,0,0,0,.05.47.49.49,0,0,0,1-.06,2.46,2.46,0,0,0,0-.34c0,.06,0-.34,0,0,0-.34,0-.59,0-.84,0-.1,0-.2,0-.31A6.42,6.42,0,0,0,24,168.79a.5.5,0,0,0-.53.52.52.52,0,0,0,.46.6l.77.11a5.72,5.72,0,0,1,1.69.57,5.28,5.28,0,0,1,2.12,2.18,6.37,6.37,0,0,1,.68,3" transform="translate(0 -0.36)" style="fill:#61b0b0"/><path d="M30.25,175.82c0-.34,0,.06,0,0" transform="translate(0 -0.36)" style="fill:#61b0b0"/><path d="M27.42,175.7h0" transform="translate(0 -0.36)" style="fill:#61b0b0"/><path d="M27.87,175.3a1.71,1.71,0,0,0,0-.47c-.18-2.24-1.41-3.22-3.15-3.35a.55.55,0,0,0-.57.47.56.56,0,0,0,.41.65c.27.07.56.05.83.14a1.85,1.85,0,0,1,.6.32,2.24,2.24,0,0,1,.74,1.27,6.77,6.77,0,0,1,.1.78.57.57,0,0,0,.56.59h.08a.46.46,0,0,0,.37-.4" transform="translate(0 -0.36)" style="fill:#61b0b0"/><path d="M27.5,175.7h0" transform="translate(0 -0.36)" style="fill:#61b0b0"/><path d="M27.47,175.7h-.05c-.08,0-.16,0,.05,0" transform="translate(0 -0.36)" style="fill:#61b0b0"/></g><g style="clip-path:url(#clip-path-4)"><path d="M32.73,125.55h0l-1.86-2,.72-.63h0l1.86,2Zm-3.45-2.15v2.55h0a.55.55,0,0,1-.56.56H24.63a.55.55,0,0,1-.56-.56v-2.41A5.58,5.58,0,0,1,26.54,113h.09a5.57,5.57,0,0,1,5.5,5.57h0a5.58,5.58,0,0,1-2.84,4.86M28.4,129h-.5a.32.32,0,0,1,.15.27.33.33,0,0,1-.32.33h0a.32.32,0,0,1-.29.19h-.13v.1h-.37v-.09h-.5v.1h-.34v-.1H26a.32.32,0,0,1-.29-.19h0a.33.33,0,0,1-.18-.6H25a.32.32,0,0,1-.32-.33.33.33,0,0,1,.32-.33h3.4a.3.3,0,0,1,.14,0,.33.33,0,0,1-.11.64m.32-2v1H24.65v-1h4.08Zm-8.4-1.49-.72-.63,1.86-2,.72.63Zm-3.46-7.38,2.77-.09,0,.95-2.77.09Zm3.07-6.62,2,1.89-.67.69-2-1.89Zm6.19-2.46h1v2.71h-1Zm7,2.45h0l.68.69-2,1.89h0l-.67-.69Zm3.07,7.6L33.4,119l0-.95,2.77.09Zm6.66-.27c0-.14,0-.28,0-.41l0-.18,0-.22,0-.21,0-.19,0-.22,0-.17,0-.23,0-.13c0-.16-.08-.32-.12-.48l0-.13-.07-.23,0-.16-.07-.21-.06-.18-.07-.2-.07-.2-.06-.17-.13-.33,0-.08-.14-.33,0-.1-.13-.28,0-.09-.15-.29,0-.06a15.8,15.8,0,0,0-9.05-7.48h0l-.36-.11-.11,0-.26-.08-.17,0-.19-.05a18.64,18.64,0,0,0-9.46,0c-10.25,2.67-12,10.69-12,12s1.22,4.69.31,7-4.18,5.89-3.87,7,3.11,1.26,3.11,1.26,0,1-.34,1.26-.16,1.09.45,1.56a6,6,0,0,0,1.64.8s-1.17.26-1,1.07a1.35,1.35,0,0,0,1.44,1.26c.88,0,1.1-.37,1.25.07s.25.49.25.49a5.74,5.74,0,0,0-.12,3.84c.76,1.63,1.94,1.63,3.3,1.3s4-1.07,4-1.07l.73,3.63H36.41l-.79-10.72s8.12-7.64,7.22-17.43" transform="translate(0 -0.36)" style="fill:#61b0b0"/><path d="M28.73,126.51Z" transform="translate(0 -0.36)" style="fill:#61b0b0"/><path d="M28.51,128.38a.34.34,0,0,1,.18.29.32.32,0,0,1-.32.33h-.5a.33.33,0,0,1-.18.6h0a.32.32,0,0,1-.29.19h-.13v.1H27v0h.34v-.1h.13a.32.32,0,0,0,.29-.19h0a.33.33,0,0,0,.32-.33.32.32,0,0,0-.15-.27h.5a.33.33,0,0,0,.11-.64" transform="translate(0 -0.36)" style="fill:#61b0b0"/></g><polygon points="31.58 122.54 33.43 124.54 32.72 125.17 32.73 125.19 33.45 124.56 31.59 122.54 31.58 122.54" style="fill:#61b0b0"/><g style="clip-path:url(#clip-path-4)"><path d="M32.13,118.53a5.58,5.58,0,0,1-2.85,4.85v2.56h0V123.4a5.58,5.58,0,0,0,2.85-4.86h0" transform="translate(0 -0.36)" style="fill:#61b0b0"/></g><polygon points="31.8 113.73 31.13 113.05 33.12 111.17 33.11 111.16 31.12 113.05 31.79 113.74 31.8 113.73" style="fill:#61b0b0"/><polygon points="31.8 113.73 31.81 113.74 33.8 111.85 33.13 111.16 33.12 111.17 33.78 111.85 31.8 113.73" style="fill:#61b0b0"/><polygon points="27.08 108.72 27.08 111.42 26.63 111.42 26.63 111.43 27.11 111.43 27.11 108.72 27.08 108.72" style="fill:#61b0b0"/><g style="clip-path:url(#clip-path-4)"><path d="M28.51,128.38a.31.31,0,0,0-.14,0H26.63l0,0H28.4l.11,0" transform="translate(0 -0.36)" style="fill:#61b0b0"/><path d="M32.13,118.53h0a5.57,5.57,0,0,0-5.5-5.58h0a5.58,5.58,0,0,1,5.5,5.56" transform="translate(0 -0.36)" style="fill:#61b0b0"/></g><polygon points="31.58 122.54 31.57 122.54 30.85 123.17 32.71 125.17 32.72 125.17 30.87 123.17 31.58 122.54" style="fill:#61b0b0"/><g style="clip-path:url(#clip-path-4)"><path d="M28.73,126.51a.55.55,0,0,0,.56-.56.56.56,0,0,1-.56.56" transform="translate(0 -0.36)" style="fill:#61b0b0"/></g><rect x="26.64" y="126.65" width="2.07" height="0.01" style="fill:#61b0b0"/><rect x="26.92" y="129.44" width="0.03" height="0.09" style="fill:#61b0b0"/></svg>