<svg id="Layer_1" data-name="Layer 1" xmlns="http://www.w3.org/2000/svg" xmlns:xlink="http://www.w3.org/1999/xlink" width="14.9" height="62.87" viewBox="0 0 14.9 62.87"><defs><clipPath id="clip-path" transform="translate(-0.05 0)"><rect x="0.05" width="14.9" height="12.8" style="fill:none"/></clipPath><clipPath id="clip-path-2" transform="translate(-0.05 0)"><rect x="1.29" y="16.38" width="12.29" height="12.8" style="fill:none"/></clipPath><clipPath id="clip-path-3" transform="translate(-0.05 0)"><rect x="1.6" y="49.71" width="11.45" height="13.17" style="fill:none"/></clipPath><clipPath id="clip-path-4" transform="translate(-0.05 0)"><rect x="1.91" y="32.93" width="11.45" height="13.25" style="fill:none"/></clipPath></defs><title>sprite-icons-main-nav-15</title><g style="clip-path:url(#clip-path)"><path d="M12.48,7l-.11,0a.28.28,0,0,0-.2.09l-.57.58a.28.28,0,0,0-.08.2v2.31a1.45,1.45,0,0,1-1.43,1.45H2.63a1.37,1.37,0,0,1-1-.43,1.41,1.41,0,0,1-.42-1V2.62a1.41,1.41,0,0,1,.42-1,1.37,1.37,0,0,1,1-.43h7.45a1.57,1.57,0,0,1,.4.05l.08,0a.28.28,0,0,0,.21-.09L11.22.7A.28.28,0,0,0,11.3.43a.27.27,0,0,0-.16-.21A2.43,2.43,0,0,0,10.09,0H2.64A2.46,2.46,0,0,0,.81.77,2.54,2.54,0,0,0,.05,2.62v7.56A2.54,2.54,0,0,0,.81,12a2.46,2.46,0,0,0,1.82.77h7.45a2.6,2.6,0,0,0,2.58-2.62V7.29A.26.26,0,0,0,12.48,7" transform="translate(-0.05 0)" style="fill:#61b0b0"/><path d="M14.73,1.81l-1-1a.71.71,0,0,0-1,0h0L6.93,6.69,4.58,4.3a.71.71,0,0,0-1,0h0l-1,1a.73.73,0,0,0,0,1h0l3.85,3.91a.71.71,0,0,0,1,0h0l7.29-7.4a.73.73,0,0,0,0-1h0" transform="translate(-0.05 0)" style="fill:#61b0b0"/></g><g style="clip-path:url(#clip-path-2)"><path d="M1.35,20.75l-.06-4a.36.36,0,0,1,.34-.37h0l3.8.06a.36.36,0,0,1,.35.37.37.37,0,0,1-.11.26L4.62,18.18,6.38,20,4.75,21.76,3,19.89,1.94,21a.34.34,0,0,1-.49,0,.35.35,0,0,1-.1-.25" transform="translate(-0.05 0)" style="fill:#61b0b0"/><path d="M11.88,19.92,12.94,21a.34.34,0,0,0,.49,0,.35.35,0,0,0,.1-.26l.06-4a.36.36,0,0,0-.34-.37h0l-3.8.06a.36.36,0,0,0-.35.37.37.37,0,0,0,.11.26l1.06,1.11L8.49,20l1.63,1.72Z" transform="translate(-0.05 0)" style="fill:#61b0b0"/><path d="M9.19,28.5a.37.37,0,0,0,0,.52.36.36,0,0,0,.25.11l3.8,0a.36.36,0,0,0,.35-.36h0l-.06-4a.34.34,0,0,0-.33-.36.34.34,0,0,0-.26.11l-1.06,1.12-1.76-1.84L8.49,25.54l1.76,1.85Z" transform="translate(-0.05 0)" style="fill:#61b0b0"/><path d="M1.64,29.15l3.8-.06a.36.36,0,0,0,.35-.37.37.37,0,0,0-.11-.26L4.63,27.35,6.39,25.5,4.75,23.77,3,25.64,1.94,24.52a.34.34,0,0,0-.48,0,.35.35,0,0,0-.1.26l-.06,4a.36.36,0,0,0,.35.37h0" transform="translate(-0.05 0)" style="fill:#61b0b0"/></g><g style="clip-path:url(#clip-path-3)"><path d="M11.8,57.85a3.15,3.15,0,0,1-1.88,2,12.45,12.45,0,0,1-3,.27.06.06,0,0,0-.05,0L6,61.2,5,62.32a.11.11,0,0,1-.16,0,.12.12,0,0,1,0-.09v-2.3a.08.08,0,0,0-.06-.08h0a3.15,3.15,0,0,1-1.88-2,12.22,12.22,0,0,1,0-4.72,3.15,3.15,0,0,1,1.88-2,12.42,12.42,0,0,1,5.18,0,3.15,3.15,0,0,1,1.88,2,12.2,12.2,0,0,1,0,4.72m1-5A4.17,4.17,0,0,0,10.12,50h0a13.34,13.34,0,0,0-5.59,0h0a4.17,4.17,0,0,0-2.67,2.85h0a13.48,13.48,0,0,0,0,5.23h0A4.24,4.24,0,0,0,4.4,60.93v1.39a.5.5,0,0,0,.45.55.49.49,0,0,0,.42-.16l1.26-1.46.82,0A13.42,13.42,0,0,0,10.14,61h0a4.17,4.17,0,0,0,2.67-2.85h0a13.47,13.47,0,0,0,0-5.23Z" transform="translate(-0.05 0)" style="fill:#61b0b0"/><path d="M9.83,57.44A6,6,0,0,0,9.36,57l-.51-.39a.41.41,0,0,0-.54,0c-.16.15-.24.44-.48.47a.7.7,0,0,1-.38-.1,2.89,2.89,0,0,1-1.5-1.85.41.41,0,0,1,0-.31.55.55,0,0,1,.12-.14l.16-.14a.57.57,0,0,0,.13-.72,6.69,6.69,0,0,0-.74-1.13.35.35,0,0,0-.47-.12,1.76,1.76,0,0,0-.57.48.89.89,0,0,0-.22.82c.12.31.24.63.37.94A8.25,8.25,0,0,0,5.83,56.7a7.46,7.46,0,0,0,2.79,2.09L9,58.9c-.11,0,.1,0,0,0a1.54,1.54,0,0,0,.31-.1A1.72,1.72,0,0,0,9.95,58a.45.45,0,0,0-.11-.52" transform="translate(-0.05 0)" style="fill:#61b0b0"/><path d="M9,58.91c.1,0-.11,0,0,0" transform="translate(-0.05 0)" style="fill:#61b0b0"/><path d="M7.34,52.22h0" transform="translate(-0.05 0)" style="fill:#61b0b0"/><path d="M7.34,52.22H7.25a.18.18,0,0,0-.17.19v0c0,.14.15.14.25.15s.31,0,.47.06a2.64,2.64,0,0,1,2,2.3c0,.22,0,.44.05.66s.06.21.17.21.16-.11.16-.22c0-.26,0-.53-.07-.79a2.92,2.92,0,0,0-2.76-2.59" transform="translate(-0.05 0)" style="fill:#61b0b0"/><path d="M7.33,52.22h0" transform="translate(-0.05 0)" style="fill:#61b0b0"/><path d="M9.11,55.23a.52.52,0,0,0,0,.15.16.16,0,1,0,.31,0,.79.79,0,0,0,0-.11h0v-.36A2,2,0,0,0,7.5,53a.16.16,0,0,0-.16.15.16.16,0,0,0,0,0,.16.16,0,0,0,.13.19h0l.24,0a1.76,1.76,0,0,1,.52.18,1.65,1.65,0,0,1,.66.69,2,2,0,0,1,.21.94" transform="translate(-0.05 0)" style="fill:#61b0b0"/><path d="M9.44,55.26h0" transform="translate(-0.05 0)" style="fill:#61b0b0"/><path d="M8.56,55.22h0" transform="translate(-0.05 0)" style="fill:#61b0b0"/><path d="M8.7,55.09a.55.55,0,0,0,0-.15,1,1,0,0,0-1-1.06.17.17,0,0,0-.18.15.18.18,0,0,0,.13.2c.08,0,.17,0,.26,0a.57.57,0,0,1,.19.1.71.71,0,0,1,.23.4,2.16,2.16,0,0,1,0,.25.18.18,0,0,0,.17.19h0a.14.14,0,0,0,.11-.13" transform="translate(-0.05 0)" style="fill:#61b0b0"/><path d="M8.59,55.22h0" transform="translate(-0.05 0)" style="fill:#61b0b0"/><path d="M8.58,55.22h0" transform="translate(-0.05 0)" style="fill:#61b0b0"/></g><g style="clip-path:url(#clip-path-4)"><path d="M10.21,39.43h0l-.58-.63.22-.2h0l.58.63Zm-1.07-.68v.8h0a.17.17,0,0,1-.17.18H7.7a.17.17,0,0,1-.17-.17h0v-.76a1.77,1.77,0,0,1-.75-2.37,1.73,1.73,0,0,1,1.51-1h0A1.74,1.74,0,0,1,10,37.23h0a1.76,1.76,0,0,1-.88,1.53m-.28,1.75H8.71a.1.1,0,0,1,0,.09.1.1,0,0,1-.1.1h0a.1.1,0,0,1-.09.06h0v0H8.41v0H8.26v0H8.15v0h0A.1.1,0,0,1,8,40.7H8a.1.1,0,0,1-.1-.11.1.1,0,0,1,0-.08H7.81a.1.1,0,0,1-.1-.1h0a.1.1,0,0,1,.1-.1h1.1a.1.1,0,0,1,.06.13.1.1,0,0,1-.1.07m.1-.63v.31H7.7v-.31H9Zm-2.61-.47-.22-.2.58-.63.22.2ZM5.29,37.09l.86,0v.3l-.86,0Zm1-2.08.62.6-.21.22L6,35.22Zm1.92-.77h.31v.85H8.17Zm2.17.77h0l.21.22-.62.6h0l-.21-.22Zm1,2.39-.88,0v-.3l.86,0Zm2.07-.09v-.62a.67.67,0,0,0,0-.15v0l0-.07v-.05l0-.07,0-.06,0-.06,0-.06,0-.05,0-.1v0l0-.1v0l0-.09v0l0-.09v0a4.92,4.92,0,0,0-2.81-2.36h0l-.11,0h0l-.08,0H9.94l-.06,0a5.7,5.7,0,0,0-2.94,0,4.63,4.63,0,0,0-3.72,3.78,5.48,5.48,0,0,1,.1,2.2C3,39.86,2,41,2.12,41.34s1,.4,1,.4,0,.31-.11.4,0,.34.14.49a1.85,1.85,0,0,0,.51.25s-.36.08-.31.34a.42.42,0,0,0,.45.4h0c.27,0,.34-.12.39,0s.08.15.08.15a1.83,1.83,0,0,0,0,1.21c.24.51.6.51,1,.41s1.24-.34,1.24-.34l.23,1.14h4.67l-.25-3.38s2.52-2.41,2.24-5.49" transform="translate(-0.05 0)" style="fill:#61b0b0"/><path d="M9,39.73" transform="translate(-0.05 0)" style="fill:#61b0b0"/><path d="M8.9,40.32a.11.11,0,0,1,.06.09.1.1,0,0,1-.1.1H8.7a.1.1,0,0,1,0,.14.1.1,0,0,1-.08,0h0a.1.1,0,0,1-.09.06h0v0h0v0h0a.1.1,0,0,0,.09-.06h0a.1.1,0,0,0,.1-.1.1.1,0,0,0,0-.09h.16a.1.1,0,0,0,0-.2" transform="translate(-0.05 0)" style="fill:#61b0b0"/></g><polygon points="9.8 38.59 10.38 39.22 10.15 39.42 10.16 39.43 10.38 39.23 9.8 38.59 9.8 38.59" style="fill:#61b0b0"/><g style="clip-path:url(#clip-path-4)"><path d="M10,37.22a1.76,1.76,0,0,1-.88,1.53v.81h0v-.8A1.76,1.76,0,0,0,10,37.22h0" transform="translate(-0.05 0)" style="fill:#61b0b0"/></g><polygon points="9.87 35.82 9.66 35.6 10.28 35.01 10.28 35.01 9.66 35.6 9.87 35.82 9.87 35.82" style="fill:#61b0b0"/><polygon points="9.87 35.82 9.87 35.82 10.49 35.23 10.28 35.01 10.28 35.01 10.48 35.23 9.87 35.82" style="fill:#61b0b0"/><polygon points="8.4 34.24 8.4 35.09 8.27 35.09 8.27 35.09 8.41 35.09 8.41 34.24 8.4 34.24" style="fill:#61b0b0"/><g style="clip-path:url(#clip-path-4)"><path d="M8.9,40.32h0" transform="translate(-0.05 0)" style="fill:#61b0b0"/><path d="M10,37.22h0a1.74,1.74,0,0,0-1.71-1.76h0A1.74,1.74,0,0,1,10,37.21" transform="translate(-0.05 0)" style="fill:#61b0b0"/></g><polygon points="9.8 38.59 9.8 38.59 9.57 38.79 10.15 39.42 10.15 39.42 9.58 38.79 9.8 38.59" style="fill:#61b0b0"/><g style="clip-path:url(#clip-path-4)"><path d="M9,39.73a.17.17,0,0,0,.17-.17h0a.18.18,0,0,1-.17.18" transform="translate(-0.05 0)" style="fill:#61b0b0"/></g><rect x="8.27" y="39.89" width="0.64" style="fill:#61b0b0"/><rect x="8.35" y="40.76" width="0.01" height="0.03" style="fill:#61b0b0"/></svg>