<svg id="Layer_1" data-name="Layer 1" xmlns="http://www.w3.org/2000/svg" xmlns:xlink="http://www.w3.org/1999/xlink" width="40" height="166.23" viewBox="0 0 40 166.23"><defs><clipPath id="clip-path" transform="translate(0 -3.39)"><rect y="3.39" width="40" height="33.87" style="fill:none"/></clipPath><clipPath id="clip-path-2" transform="translate(0 -3.39)"><rect x="0.3" y="44" width="34" height="33.45" style="fill:none"/></clipPath><clipPath id="clip-path-3" transform="translate(0 -3.39)"><rect y="130.79" width="34.3" height="38.85" style="fill:none"/></clipPath><clipPath id="clip-path-4" transform="translate(0 -3.39)"><rect y="87.55" width="31.67" height="36.09" style="fill:none"/></clipPath></defs><title>sprite-icons-main-nav-40</title><g style="clip-path:url(#clip-path)"><path d="M33.38,22a.65.65,0,0,0-.29-.08.76.76,0,0,0-.55.24L31,23.69a.73.73,0,0,0-.22.53v6.11a3.86,3.86,0,0,1-3.85,3.85h-20A3.7,3.7,0,0,1,4.22,33a3.7,3.7,0,0,1-1.13-2.72v-20A3.7,3.7,0,0,1,4.21,7.59,3.71,3.71,0,0,1,6.93,6.46h20A4.27,4.27,0,0,1,28,6.6a.77.77,0,0,0,.22,0,.76.76,0,0,0,.57-.23L30,5.24a.74.74,0,0,0,.22-.7A.72.72,0,0,0,29.78,4a6.62,6.62,0,0,0-2.84-.6h-20A6.67,6.67,0,0,0,2,5.42a6.67,6.67,0,0,0-2,4.89v20a6.67,6.67,0,0,0,2,4.9,6.67,6.67,0,0,0,4.89,2h20a6.94,6.94,0,0,0,6.93-6.93V22.68a.7.7,0,0,0-.48-.7" transform="translate(0 -3.39)" style="fill:#61b0b0"/><path d="M39.43,8.17,36.78,5.53a1.92,1.92,0,0,0-2.71,0l0,0L18.48,21.09l-6.33-6.33a1.92,1.92,0,0,0-2.71,0l0,0L6.76,17.41a1.92,1.92,0,0,0,0,2.71l0,0L17.1,30.49a1.92,1.92,0,0,0,2.71,0l0,0L39.43,10.92a1.92,1.92,0,0,0,0-2.71l0,0" transform="translate(0 -3.39)" style="fill:#61b0b0"/></g><g style="clip-path:url(#clip-path-2)"><path d="M.45,55.44.3,45a1,1,0,0,1,1-1h0l10.52.15a1,1,0,0,1,1,1,.94.94,0,0,1-.31.67L9.51,48.71l4.87,4.85-4.52,4.5L5,53.19,2.07,56.11a1,1,0,0,1-1.35,0,.89.89,0,0,1-.28-.66" transform="translate(0 -3.39)" style="fill:#61b0b0"/><path d="M29.59,53.25l2.93,2.91a1,1,0,0,0,1.35,0,.89.89,0,0,0,.28-.67L34.3,45a1,1,0,0,0-1-1h0l-10.52.16a1,1,0,0,0-1,1,.94.94,0,0,0,.31.67l2.92,2.9L20.2,53.58l4.52,4.5Z" transform="translate(0 -3.39)" style="fill:#61b0b0"/><path d="M22.14,75.68a.93.93,0,0,0,0,1.35,1,1,0,0,0,.7.3l10.52.12a1,1,0,0,0,1-.95v0L34.14,66a.92.92,0,0,0-.91-.93,1,1,0,0,0-.71.28l-2.94,2.92-4.86-4.82L20.2,68l4.87,4.85Z" transform="translate(0 -3.39)" style="fill:#61b0b0"/><path d="M1.27,77.39l10.52-.15a1,1,0,0,0,1-1,.94.94,0,0,0-.31-.67L9.52,72.69l4.87-4.85-4.52-4.5L5,68.2,2.07,65.29a1,1,0,0,0-1.34,0,.89.89,0,0,0-.29.68L.3,76.43a1,1,0,0,0,1,1h0" transform="translate(0 -3.39)" style="fill:#61b0b0"/></g><g style="clip-path:url(#clip-path-3)"><path d="M30.53,154.82c-.55,2.39-3.38,5.36-5.63,5.91a37.8,37.8,0,0,1-8.88.79.2.2,0,0,0-.16.07l-2.79,3.1L10.14,168a.34.34,0,0,1-.59-.26V161a.23.23,0,0,0-.18-.23h0c-2.25-.55-5.08-3.52-5.63-5.91a35.53,35.53,0,0,1,0-13.94c.55-2.39,3.38-5.36,5.63-5.91a37.73,37.73,0,0,1,15.51,0c2.25.55,5.08,3.52,5.63,5.91a35.49,35.49,0,0,1,0,13.94m3-14.73c-.83-3.66-4.55-7.6-8-8.42h0a40.53,40.53,0,0,0-16.72,0h0c-3.42.82-7.15,4.75-8,8.42h0a39.19,39.19,0,0,0,0,15.42h0a12.56,12.56,0,0,0,7.56,8.37V168a1.49,1.49,0,0,0,2.58,1.14l3.78-4.31c.82,0,1.64.07,2.46.07a40.74,40.74,0,0,0,8.36-.86h0c3.43-.82,7.15-4.75,8-8.42h0a39.16,39.16,0,0,0,0-15.42Z" transform="translate(0 -3.39)" style="fill:#61b0b0"/><path d="M24.63,153.62a17.75,17.75,0,0,0-1.4-1.2c-.5-.39-1-.78-1.52-1.14a1.25,1.25,0,0,0-1.62.07c-.49.45-.72,1.29-1.43,1.38a2.13,2.13,0,0,1-1.15-.31A8.55,8.55,0,0,1,13,147a1.2,1.2,0,0,1,.07-.93,1.62,1.62,0,0,1,.35-.4,4.78,4.78,0,0,1,.46-.4,1.66,1.66,0,0,0,.4-2.13,19.71,19.71,0,0,0-2.21-3.34,1,1,0,0,0-1.39-.36A5.24,5.24,0,0,0,9,140.84a2.6,2.6,0,0,0-.65,2.41c.35.93.71,1.86,1.11,2.79a24.26,24.26,0,0,0,3.21,5.39A22.3,22.3,0,0,0,21,157.58a9.94,9.94,0,0,0,1,.33c-.34-.11.3-.1,0,0a4.65,4.65,0,0,0,.93-.31,5.09,5.09,0,0,0,2-2.47,1.33,1.33,0,0,0-.34-1.54" transform="translate(0 -3.39)" style="fill:#61b0b0"/><path d="M22,158c.3-.1-.34-.11,0,0" transform="translate(0 -3.39)" style="fill:#61b0b0"/><path d="M17.17,138.22h0" transform="translate(0 -3.39)" style="fill:#61b0b0"/><path d="M17.17,138.22h-.26a.54.54,0,0,0-.51.57v.05c.07.41.46.43.75.46.47.06.93.07,1.4.17a7.83,7.83,0,0,1,6,6.79c.08.64.11,1.29.16,1.94,0,.33.17.63.5.63s.49-.32.46-.64c-.06-.78-.1-1.56-.22-2.32a8.7,8.7,0,0,0-8.27-7.64" transform="translate(0 -3.39)" style="fill:#61b0b0"/><path d="M17.15,138.22h0" transform="translate(0 -3.39)" style="fill:#61b0b0"/><path d="M22.49,147.1a1.51,1.51,0,0,0,0,.44.47.47,0,1,0,.93-.06,2.29,2.29,0,0,0,0-.32h0V146.1a6,6,0,0,0-5.81-5.45.46.46,0,0,0-.49.48.48.48,0,0,0,.4.55h0l.72.1a5.31,5.31,0,0,1,1.57.53,4.91,4.91,0,0,1,2,2,5.92,5.92,0,0,1,.63,2.79" transform="translate(0 -3.39)" style="fill:#61b0b0"/><path d="M23.46,147.17h0" transform="translate(0 -3.39)" style="fill:#61b0b0"/><path d="M20.83,147.06h0" transform="translate(0 -3.39)" style="fill:#61b0b0"/><path d="M21.25,146.69a1.59,1.59,0,0,0,0-.44,3,3,0,0,0-2.93-3.11.51.51,0,0,0-.53.44.52.52,0,0,0,.38.6c.25.07.52,0,.77.13a1.72,1.72,0,0,1,.56.3,2.08,2.08,0,0,1,.69,1.18,6.29,6.29,0,0,1,.09.72.53.53,0,0,0,.51.55h.08a.43.43,0,0,0,.34-.37" transform="translate(0 -3.39)" style="fill:#61b0b0"/><path d="M20.91,147.06h0" transform="translate(0 -3.39)" style="fill:#61b0b0"/><path d="M20.88,147.06h0" transform="translate(0 -3.39)" style="fill:#61b0b0"/></g><g style="clip-path:url(#clip-path-4)"><path d="M22.93,105.24h0l-1.6-1.72L22,103h0l1.6,1.72Zm-3-1.84v2.19h0a.47.47,0,0,1-.46.48H16a.47.47,0,0,1-.48-.46s0,0,0,0v-2.07a4.79,4.79,0,0,1,2.12-9h.08a4.78,4.78,0,0,1,4.72,4.78h0A4.79,4.79,0,0,1,20,103.42m-.76,4.78h-.43a.27.27,0,0,1,.13.23.28.28,0,0,1-.27.28h0a.27.27,0,0,1-.25.16h-.11V109H18v-.08h-.43V109h-.29v-.09h-.09a.27.27,0,0,1-.25-.16h0a.28.28,0,0,1-.15-.51H16.3a.27.27,0,0,1-.27-.27h0a.28.28,0,0,1,.27-.28h3a.28.28,0,0,1-.09.55m.27-1.72v.86H16v-.86h3.52Zm-7.21-1.28-.62-.54,1.6-1.72.62.54Zm-3-6.33,2.38-.08v.82l-2.38.08ZM12,93.18l1.72,1.62-.57.59L11.4,93.78Zm5.31-2.11h.86V93.4h-.86Zm6,2.1h0l.58.59-1.72,1.62h0l-.57-.59Zm2.63,6.52-2.42-.08V98.8l2.38.08Zm5.71-.23V97.78a1.81,1.81,0,0,0-.1-.41v-.11l-.06-.2v-.14l-.06-.18-.05-.15-.06-.17-.06-.17-.05-.15-.11-.28v-.07L31,95.47v-.09l-.11-.24v-.08l-.13-.25v-.05A13.56,13.56,0,0,0,23,88.34h0l-.31-.09h-.09l-.22-.07h-.15l-.16,0a16,16,0,0,0-8.12,0c-8.79,2.29-10.3,9.17-10.3,10.3s1,4,.27,6-3.59,5.05-3.32,6,2.67,1.08,2.67,1.08,0,.86-.29,1.08-.14.94.39,1.34a5.15,5.15,0,0,0,1.41.69s-1,.22-.86.92a1.16,1.16,0,0,0,1.23,1.08h0c.75,0,.94-.32,1.07.06s.21.42.21.42a4.92,4.92,0,0,0-.1,3.29c.65,1.4,1.66,1.4,2.83,1.12s3.43-.92,3.43-.92l.63,3.11H26.09l-.68-9.2s7-6.55,6.19-15" transform="translate(0 -3.39)" style="fill:#61b0b0"/><path d="M19.5,106.06" transform="translate(0 -3.39)" style="fill:#61b0b0"/><path d="M19.31,107.67a.29.29,0,0,1,.15.25.27.27,0,0,1-.27.28h-.44a.28.28,0,0,1-.15.51h0a.27.27,0,0,1-.25.16h-.11V109h.06v-.09h.11a.27.27,0,0,0,.25-.16h0a.28.28,0,0,0,.27-.28.27.27,0,0,0-.13-.23h.43a.28.28,0,0,0,.09-.55" transform="translate(0 -3.39)" style="fill:#61b0b0"/></g><polygon points="21.95 99.58 23.53 101.29 22.93 101.83 22.93 101.85 23.55 101.31 21.96 99.58 21.95 99.58" style="fill:#61b0b0"/><g style="clip-path:url(#clip-path-4)"><path d="M22.42,99.21A4.79,4.79,0,0,1,20,103.38v2.2h0v-2.18a4.79,4.79,0,0,0,2.45-4.17h0" transform="translate(0 -3.39)" style="fill:#61b0b0"/></g><polygon points="22.14 92.02 21.56 91.44 23.27 89.82 23.26 89.81 21.55 91.44 22.13 92.03 22.14 92.02" style="fill:#61b0b0"/><polygon points="22.14 92.02 22.14 92.03 23.85 90.41 23.28 89.81 23.27 89.82 23.83 90.41 22.14 92.02" style="fill:#61b0b0"/><polygon points="18.09 87.72 18.09 90.04 17.7 90.04 17.7 90.05 18.11 90.05 18.11 87.72 18.09 87.72" style="fill:#61b0b0"/><g style="clip-path:url(#clip-path-4)"><path d="M19.31,107.67h0" transform="translate(0 -3.39)" style="fill:#61b0b0"/><path d="M22.42,99.21h0a4.78,4.78,0,0,0-4.72-4.79h0a4.79,4.79,0,0,1,4.72,4.77" transform="translate(0 -3.39)" style="fill:#61b0b0"/></g><polygon points="21.95 99.58 21.94 99.58 21.32 100.12 22.92 101.83 22.93 101.83 21.34 100.12 21.95 99.58" style="fill:#61b0b0"/><g style="clip-path:url(#clip-path-4)"><path d="M19.5,106.06a.47.47,0,0,0,.48-.46s0,0,0,0a.48.48,0,0,1-.48.48" transform="translate(0 -3.39)" style="fill:#61b0b0"/></g><rect x="17.71" y="103.1" width="1.78" height="0.01" style="fill:#61b0b0"/><rect x="17.95" y="105.5" width="0.03" height="0.08" style="fill:#61b0b0"/></svg>